<svg xmlns="http://www.w3.org/2000/svg" viewBox="0 0 45 53" fill="none">
  <!-- marcothesis favicon — mt ligature on dark background -->
  <rect width="45" height="53" fill="#17130E"/>
  <path d="M42.8203 19V22.125H30.3828V19H42.8203ZM34.0078 13.25H37.6953V36.125C37.6953 37.1667 37.8464 37.9479 38.1484 38.4687C38.4609 38.9792 38.8568 39.3229 39.3359 39.5C39.8255 39.6667 40.3411 39.75 40.8828 39.75C41.2891 39.75 41.6224 39.7292 41.8828 39.6875C42.1432 39.6354 42.3516 39.5937 42.5078 39.5625L43.2578 42.875C43.0078 42.9687 42.6589 43.0625 42.2109 43.1563C41.763 43.2604 41.1953 43.3125 40.5078 43.3125C39.4661 43.3125 38.4453 43.0885 37.4453 42.6406C36.4557 42.1927 35.6328 41.5104 34.9766 40.5938C34.3307 39.6771 34.0078 38.5208 34.0078 37.125V13.25Z" fill="#D4703A"/>
  <path d="M3.75391 43V19H7.31641V22.75H7.62891C8.12891 21.4687 8.9362 20.474 10.0508 19.7656C11.1654 19.0469 12.5039 18.6875 14.0664 18.6875C15.6497 18.6875 16.9674 19.0469 18.0195 19.7656C19.082 20.474 19.9102 21.4687 20.5039 22.75H20.7539C21.3685 21.5104 22.2904 20.526 23.5195 19.7969C24.7487 19.0573 26.2227 18.6875 27.9414 18.6875C30.0872 18.6875 31.8424 19.3594 33.207 20.7031C34.5716 22.0365 35.2539 24.1146 35.2539 26.9375V43H31.5664V26.9375C31.5664 25.1667 31.082 23.901 30.1133 23.1406C29.1445 22.3802 28.0039 22 26.6914 22C25.0039 22 23.6966 22.5104 22.7695 23.5312C21.8424 24.5417 21.3789 25.8229 21.3789 27.375V43H17.6289V26.5625C17.6289 25.1979 17.1862 24.099 16.3008 23.2656C15.4154 22.4219 14.2747 22 12.8789 22C11.9206 22 11.0247 22.2552 10.1914 22.7656C9.36849 23.276 8.70182 23.9844 8.19141 24.8906C7.69141 25.7865 7.44141 26.8229 7.44141 28V43H3.75391Z" fill="white"/>
</svg>
